<?xml version="1.0" encoding="utf-8"?>
<!-- Generator: Adobe Illustrator 23.0.1, SVG Export Plug-In . SVG Version: 6.00 Build 0)  -->
<svg version="1.1" id="Capa_1" xmlns="http://www.w3.org/2000/svg" xmlns:xlink="http://www.w3.org/1999/xlink" x="0px" y="0px"
	 viewBox="0 0 412.5 412.5" style="enable-background:new 0 0 412.5 412.5;" xml:space="preserve">
<style type="text/css">
	.st0{fill:#FFFFFF;}
</style>
<path class="st0" d="M364.4,118.3c-1.3-1-3-1.6-4.8-1.6h-76.1c-0.2-25.5-8.1-89.4-58.9-89.4c-11.5,0-22.3,2.6-31.4,7.2
	c-9.1-4.6-19.5-7.8-31.1-7.8c-9.2,0-17.9,1-25.9,4c-10.9,4.2-19.1,13.3-22.6,24.5c-5.8,18.6-10.5,48.6-10.7,61.5H26.8
	c-1.8,0-3.5,0.6-4.8,1.6c-1.3,1-2,2.4-1.9,3.8l4.8,235.6c0.1,2.9,3.1,5.2,6.7,5.2h322.2c3.7,0,6.7-2.3,6.7-5.2l5.7-235.6
	C366.3,120.7,365.6,119.3,364.4,118.3z M270,116.7h-49.4c-0.1-12.3-6.6-65.3-16.3-75c6.1-2.4,13-3.8,20.3-3.8
	C264.9,37.9,269.8,97,270,116.7z M193.2,47.9c9.4,9.4,13.9,58.8,14,68.8h-27.9C179.3,106.6,184.6,54.4,193.2,47.9z M124.3,61.6
	c3.3-12.3,13.7-21.6,26.4-23.2c3.6-0.4,7.3-0.6,11-0.6c7.3,0,14.2,1.4,20.3,3.8c-10.6,10.3-16.5,57-16.3,75h-49.4
	C116.4,109.5,119.3,80.2,124.3,61.6z M33.7,127.3h49.1l-4.6,225H38.3L33.7,127.3z M347.2,352.3h-50.5H91.7l4.6-225h69.5v37.5
	c0,2.9,3,5.3,6.7,5.3c3.7,0,6.7-2.4,6.7-5.3v-37.5H270v37.5c0,2.9,3,5.3,6.7,5.3c3.7,0,6.7-2.4,6.7-5.3v-37.5h69.2L347.2,352.3z"/>
</svg>
